<svg xmlns="http://www.w3.org/2000/svg" xmlns:xlink="http://www.w3.org/1999/xlink" viewBox="0 0 334.96 383.84"><defs><style>.cls-1{fill:none;}.cls-2{clip-path:url(#clip-path);}.cls-3{fill:none;}.cls-4{fill:url(#linear-gradient);}.cls-5{fill:url(#linear-gradient-2);}.cls-6{fill:url(#linear-gradient-3);}.cls-7{fill:url(#linear-gradient-4);}</style><clipPath id="clip-path" transform="translate(28.06 0.01)"><circle class="cls-1" cx="153.95" cy="153.95" r="153.95"/></clipPath><linearGradient id="linear-gradient" x1="472.49" y1="652" x2="587.66" y2="652" gradientTransform="translate(1190.33 274.75) rotate(180) scale(1.96 0.19)" gradientUnits="userSpaceOnUse"><stop offset="0" stop-color="red"/><stop offset="0.11" stop-color="#f20309"/><stop offset="0.3" stop-color="#cf0b21"/><stop offset="0.56" stop-color="#981848"/><stop offset="0.88" stop-color="#4b2a7d"/><stop offset="1" stop-color="#2e3192"/></linearGradient><linearGradient id="linear-gradient-2" x1="456.43" y1="900.24" x2="579.16" y2="900.24" xlink:href="#linear-gradient"/><linearGradient id="linear-gradient-3" x1="-65.08" y1="5179.66" x2="29.33" y2="5179.66" gradientTransform="matrix(-1.2, 3.73, -0.18, -0.06, 1042.17, 572.13)" xlink:href="#linear-gradient"/><linearGradient id="linear-gradient-4" x1="-64.83" y1="5414.91" x2="29.58" y2="5414.91" gradientTransform="matrix(-1.12, 3.51, -0.18, -0.06, 1037.43, 586.92)" xlink:href="#linear-gradient"/></defs><title>Logo_white</title><g id="Layer_2" data-name="Layer 2"><g id="Layer_1-2" data-name="Layer 1"><g class="cls-2"><circle class="cls-3" cx="181.01" cy="153.95" r="153.95"/><polygon class="cls-4" points="266.35 133.27 52.56 132.81 41.13 166.71 245.43 166.58 266.35 133.27"/><polygon class="cls-5" points="297.76 85.68 69.49 85.23 57.75 119.11 275.46 118.99 297.76 85.68"/><polygon class="cls-6" points="158.35 20.99 45.86 373.62 77.6 383.84 179.48 63.92 158.35 20.99"/><polygon class="cls-7" points="105.69 37.62 0 368.9 31.74 379.12 127.44 78.57 105.69 37.62"/></g></g></g></svg>